<svg width="42" height="42" viewBox="0 0 42 42" fill="none" xmlns="http://www.w3.org/2000/svg">
<rect width="42" height="42" rx="16" fill="#3A3F47"/>
<path d="M28.023 25.977C27.5546 25.5284 27.0988 25.0669 26.656 24.593C26.284 24.215 26.06 23.94 26.06 23.94L23.26 22.603C24.381 21.3316 24.9997 19.695 25 18C25 14.141 21.86 11 18 11C14.14 11 11 14.141 11 18C11 21.859 14.14 25 18 25C19.763 25 21.37 24.34 22.603 23.261L23.94 26.061C23.94 26.061 24.215 26.285 24.593 26.657C24.98 27.02 25.489 27.511 25.977 28.024L27.335 29.416L27.939 30.062L30.06 27.941L29.414 27.337C29.035 26.965 28.529 26.471 28.023 25.977V25.977ZM18 23C15.243 23 13 20.757 13 18C13 15.243 15.243 13 18 13C20.757 13 23 15.243 23 18C23 20.757 20.757 23 18 23Z" fill="#EEEEEE"/>
</svg>
